# xmcd
#
# Track frame offsets:
#	150
#	29063
#	60486
#	96222
#	124409
#	147579
#	168201
#	204198
#	216571
#	228093
#
# Disc length: 3227 seconds
#
# Revision: 1
# Processed by: cddbd v1.5.2PL0 Copyright (c) Steve Scherf et al.
# Submitted via: audiograbber 1.83.01
#
DISCID=920c990a
DTITLE=_ Diverse - - Relax and Wellness - Winter edition - 1
DYEAR=2005
DGENRE=Instrumental - Wellness
TTITLE0=Passionate Poetry
TTITLE1=Winds of Time
TTITLE2=Peaks of Pleasure
TTITLE3=Free Floating
TTITLE4=The Nightintgale
TTITLE5=Shoreline
TTITLE6=Dawning Sunday
TTITLE7=Late Knight
TTITLE8=Threshold
TTITLE9=Tall In
EXTD=
EXTT0=
EXTT1=
EXTT2=
EXTT3=
EXTT4=
EXTT5=
EXTT6=
EXTT7=
EXTT8=
EXTT9=
PLAYORDER=
